inDegrees=no
num_controls=7
num_derivatives=13
num_iterations=92
num_multipliers=7
num_parameters=0
num_slacks=7
num_states=26
objective=0.479005
objective_accelerations=0.001470
objective_balance=0.000777
objective_effort=0.006417
objective_height=0.458925
objective_ligament=0.011416
solver_duration=1056.699773
status=Solve_Succeeded
success=true
DataType=double
version=3
OpenSimVersion=4.5
endheader
time	/jointset/ground_pelvis/pelvis_tilt/value	/jointset/ground_pelvis/pelvis_tx/value	/jointset/ground_pelvis/pelvis_ty/value	/jointset/hip_r/hip_flexion_r/value	/jointset/hip_r/hip_adduction_r/value	/jointset/hip_r/hip_rotation_r/value	/jointset/back/lumbar_extension/value	/jointset/patellofemoral_r/patellar_flexion_r/value	/jointset/knee_r/knee_flexion_r/value	/jointset/knee_r/knee_adduction_r/value	/jointset/knee_r/knee_rotation_r/value	/jointset/ankle_r/ankle_angle_r/value	/jointset/subtalar_r/subtalar_angle_r/value	/jointset/ground_pelvis/pelvis_tilt/speed	/jointset/ground_pelvis/pelvis_tx/speed	/jointset/ground_pelvis/pelvis_ty/speed	/jointset/hip_r/hip_flexion_r/speed	/jointset/hip_r/hip_adduction_r/speed	/jointset/hip_r/hip_rotation_r/speed	/jointset/back/lumbar_extension/speed	/jointset/patellofemoral_r/patellar_flexion_r/speed	/jointset/knee_r/knee_flexion_r/speed	/jointset/knee_r/knee_adduction_r/speed	/jointset/knee_r/knee_rotation_r/speed	/jointset/ankle_r/ankle_angle_r/speed	/jointset/subtalar_r/subtalar_angle_r/speed	/forceset/tau_hip_flexion_r	/forceset/tau_hip_adduction_r	/forceset/tau_hip_rotation_r	/forceset/tau_knee_flexion_r	/forceset/tau_ankle_angle_r	/forceset/tau_subtalar_angle_r	/forceset/tau_lumbar_extension	lambda_cid13_p0	lambda_cid14_p0	lambda_cid14_p1	lambda_cid14_p2	lambda_cid14_p3	lambda_cid14_p4	lambda_cid14_p5	/jointset/ground_pelvis/pelvis_tilt/accel	/jointset/ground_pelvis/pelvis_tx/accel	/jointset/ground_pelvis/pelvis_ty/accel	/jointset/hip_r/hip_flexion_r/accel	/jointset/hip_r/hip_adduction_r/accel	/jointset/hip_r/hip_rotation_r/accel	/jointset/back/lumbar_extension/accel	/jointset/patellofemoral_r/patellar_flexion_r/accel	/jointset/knee_r/knee_flexion_r/accel	/jointset/knee_r/knee_adduction_r/accel	/jointset/knee_r/knee_rotation_r/accel	/jointset/ankle_r/ankle_angle_r/accel	/jointset/subtalar_r/subtalar_angle_r/accel	gamma_cid13_p0	gamma_cid14_p0	gamma_cid14_p1	gamma_cid14_p2	gamma_cid14_p3	gamma_cid14_p4	gamma_cid14_p5
0.5	0.0194646272495401	0.1382410055391693	0.9365368927935758	0.1734986002067343	-0.08494444877306123	-0.002069657422744836	-0.3324233626451464	0.2498830502617133	0.2498830502617199	-0.1451619775631556	-0.1679818591557854	0.1204477784139467	0.2546300383995601	0.04539775810517493	0.03861386417679955	0.0001532616779991681	-0.07055581350206283	-0.008932600131194065	-0.02736756202236312	-0.1035292924468539	0.04763050155307027	0.04763050155307375	0.008002182473528479	0.01797556135353312	0.08085779798667934	0.02655478090552519	0.0005825473752279805	0.04294338501023345	0.03557972635754439	-0.1229160181907107	0.001116122952316641	-0.03879343651010109	0.07991519993312525	-28.20595269283211	-50.13348102204397	-29.11828836399389	9.053219762412938	4.741130677005545	-663.1260574977608	31.57641393265735	0.09027163744750534	-0.035721191563707	0.007602782578868723	-0.08658688724828197	0.01294911443938595	0.004767571600493084	0.1276104706409188	-0.05693428152117344	-0.05693428152117264	-0.02460793283583977	-0.007210475026596291	-0.06547602372129817	-0.00993746860401783	-1.289900430020687e-10	-3.444775754607256e-10	-1.436093430963597e-09	7.737621525418308e-10	2.423683834279115e-10	-2.974191560431808e-11	-2.3559139331558e-09
0.51	0.01992304736843844	0.1386253126545256	0.9365388025013838	0.1727888298623887	-0.0850331035708896	-0.002343043117519696	-0.3334520804351877	0.2503564850505506	0.2503564850505606	-0.1450832213003371	-0.1678025142663629	0.1212529993878575	0.2548950797852297	0.04628346149384841	0.03824327446913846	0.0002291202098628408	-0.07139439360124752	-0.008796629750461958	-0.02730634239520294	-0.1021986222065716	0.04704834194588366	0.04704834194588596	0.00774696844020311	0.01789062416702371	0.08017615923198074	0.02645081064232165	0.0001627537589734133	0.04316290612701662	0.03535660520144744	-0.1220190458031797	-0.0006031252797197535	-0.03901504410239926	0.08034729726182527	-28.20918129492785	-50.70671131294986	-29.2141770465695	8.953456046421302	4.979263782519626	-663.1726896489268	31.42507436905296	0.08729901789289249	-0.0383704779684288	0.007643434611271567	-0.08191435510810677	0.01418060731673748	0.007284453199292081	0.1381418039959186	-0.06007391582770174	-0.06007391582790719	-0.02629343027275226	-0.009554073736200595	-0.07104343249933645	-0.01102976178575757	-1.235305536200637e-10	-3.234445007943848e-10	-1.345413347337725e-09	7.159257789508936e-10	2.3071861734724e-10	-4.46494573553735e-12	-2.257402824157039e-09
0.52	0.02039024038688708	0.1390057853492849	0.9365414840037348	0.1720707895602811	-0.0851203467434256	-0.002615719557037426	-0.3344670222221712	0.2508238548202158	0.2508238548202298	-0.1450070802361941	-0.1676241024954575	0.1220510968479905	0.2551590008769458	0.04715233801514399	0.03784698005740463	0.0003076205866094953	-0.07220980505461834	-0.008650275072663811	-0.02722571097102444	-0.1007740918353236	0.04641749771828568	0.04641749771828678	0.007479142739204404	0.01778893764959319	0.07943309523107481	0.02633072211482805	-0.0002570398572730655	0.04338242724379446	0.03513348404535772	-0.1211220734156377	-0.002322373511751117	-0.03923665169470218	0.08077939459052803	-28.21233414325719	-51.28067375987375	-29.31017230020336	8.853684622418092	5.220831052477561	-663.2282836813218	31.27438509814887	0.08690626397195796	-0.04086213237828793	0.008131151555466593	-0.08195315808549633	0.01502597385260649	0.008649931004144226	0.1463824968340667	-0.06667120560344608	-0.06667120560344587	-0.02713026637053251	-0.01056034121080733	-0.0777610729627919	-0.01316112146202933	-1.227757197811805e-10	-3.157051153237773e-10	-1.292565139001219e-09	6.703529762498926e-10	2.293173934397409e-10	1.501388434600021e-11	-2.202811477602138e-09
0.53	0.02086604289447219	0.1393821667842166	0.9365449637773563	0.1713447093059792	-0.08520607352790747	-0.002887488911302253	-0.3354672648845384	0.2512846808977373	0.2512846808977461	-0.1449336820605156	-0.1674467958311433	0.1228414610120504	0.2554216434499065	0.0480058383898532	0.03742504833844638	0.0003888087407292641	-0.07300280514675153	-0.008493101392815875	-0.0271248033478009	-0.09926029268934117	0.04573989420426073	0.04573989420426106	0.007197894129011347	0.01766927630136883	0.07862969852959854	0.0261954986238667	-0.0006421661067770375	0.04356297596748789	0.03492065537073435	-0.1202696952041417	-0.003992414921470659	-0.03942109391961966	0.08118374014322625	-28.2154085289768	-51.83454815865743	-29.39017676569262	8.755552883610529	5.451462013775538	-663.2721530449633	31.15395888696315	0.08422311609852701	-0.04349743460351903	0.00818384284993544	-0.07745738073466661	0.01636028125590525	0.01131475395322867	0.1560008158485151	-0.06947843709277014	-0.069478437092913	-0.02901193462375908	-0.01313676482398263	-0.08313482579453046	-0.01404715433372999	-1.165201884080793e-10	-2.950146732790555e-10	-1.207331070941312e-09	6.11863045816942e-10	2.165441331770683e-10	2.115320771943995e-11	-2.105828300445803e-09
0.54	0.02135031064418046	0.1397542011533688	0.9365492696716211	0.170610802261565	-0.08529016913235082	-0.003158148474139983	-0.3364519451169719	0.2517384962375614	0.2517384962375667	-0.1448631743261987	-0.1672707793269494	0.1236234900376849	0.2556828649496732	0.04884538643968445	0.03697756690150435	0.000472844715274801	-0.07377516307718646	-0.008324039064765405	-0.02700375268570845	-0.09766160584862699	0.04501535017860629	0.04501535017860585	0.006901054467617344	0.01753090562531758	0.07776606754594324	0.02604650747608293	-0.001027292356276067	0.04374352469117569	0.03470782669611042	-0.119417316992638	-0.005662456331185718	-0.03960553614454234	0.08158808569592498	-28.21840392077604	-52.38922003485453	-29.47024854849237	8.657349277402908	5.686069517767233	-663.3260123116949	31.03447844139904	0.08411579899639854	-0.0459720759750769	0.008700715640621894	-0.07782472574583996	0.01740370349312464	0.01267853877791636	0.1633600357804414	-0.07605930792934204	-0.07605930792934205	-0.03024847661074547	-0.01430220677617157	-0.08980792939863404	-0.01591465282651212	-1.041787789120137e-10	-2.599954026842498e-10	-1.086265838932111e-09	5.390818251273662e-10	1.911890454576078e-10	1.253392792647341e-11	-1.961943523475118e-09
0.55	0.02184289753503519	0.1401216392670753	0.9365544290151877	0.1698692832523966	-0.08537252558934734	-0.003427497697650504	-0.3374202308460995	0.2521848477324288	0.2521848477324407	-0.1447956911371937	-0.167096232531821	0.1243965979725969	0.2559425207156699	0.04966894703190591	0.03650643174412138	0.0005593997456516117	-0.0745245153028965	-0.008146128112582621	-0.02686299269445266	-0.09598296430762669	0.04424831440002056	0.0442483144000194	0.006594668953666751	0.01737607647717436	0.07684689274155737	0.0258818587567312	-0.001333589512691987	0.0438576145556315	0.03452332527572067	-0.1186958779277404	-0.007167097746367542	-0.03972561865681933	0.08193429022565703	-28.22131822833024	-52.88392681807738	-29.5237178812245	8.568438264167167	5.87693299717021	-663.3656867538308	30.96377843459983	0.08101945222750698	-0.04822781459809793	0.008689260447774568	-0.07287198807383358	0.01815356694289655	0.01523969435923511	0.1720025636986691	-0.07802085256350434	-0.07802085256363828	-0.03097076392477134	-0.01642973279726291	-0.09426625798625649	-0.0171581208682231	-9.251648625089845e-11	-2.199526038954344e-10	-9.826474370262111e-10	4.725848912504468e-10	1.668361575907735e-10	4.407512013317018e-11	-1.846377043698657e-09
0.5600000000000001	0.02234362868439104	0.1404842573134122	0.9365604651818006	0.1691203944175544	-0.08545306918165124	-0.003695346328235808	-0.3383713528897289	0.252623329841563	0.2526233298415848	-0.1447312992383597	-0.1669233053209663	0.1251602553590599	0.2562004463665972	0.05047423813982362	0.036013553427585	0.0006482093245283908	-0.07524912821222073	-0.007961466125915848	-0.02670363410080556	-0.09422886874906851	0.04344147303182282	0.04344147303182095	0.006282796434216135	0.0172069887704789	0.07587595785606423	0.0257004844622298	-0.001639886669095456	0.04397170442008076	0.03433882385532634	-0.1179744388628318	-0.008671739161543519	-0.03984570116910206	0.08228049475539481	-28.22415078686457	-53.37947207513185	-29.57719792631121	8.479373502714784	6.072259908436904	-663.4161422198299	30.8943596549798	0.0804619021356866	-0.05032070780579347	0.00915162534061747	-0.07287686246866737	0.01875391038993352	0.01639825925616733	0.1784508392920386	-0.08402042585174248	-0.08402042585174241	-0.03134587771077196	-0.01715391848660666	-0.1001599456201274	-0.01925976785644968	-8.166913379172375e-11	-1.738815712738075e-10	-8.99965231244271e-10	4.136291015487147e-10	1.436859095470906e-10	1.238088787394614e-10	-1.764792520555265e-09
0.5700000000000001	0.02285231831365293	0.1408418422733509	0.9365674008242563	0.1683643802522399	-0.0855317336285064	-0.003961511630637515	-0.3393045522892419	0.2530535421537342	0.2530535421537556	-0.1446700512953525	-0.1667521373989629	0.1259139490064752	0.256456474901584	0.05126029292092112	0.03550025947622567	0.0007393232953221838	-0.0759500377283555	-0.00777021133668047	-0.02652686611602422	-0.0923979121687465	0.04259369150500428	0.04259369150500427	0.005965648376398854	0.01702455269257963	0.07485437463252906	0.02550264277515061	-0.001910186237161438	0.04404628375806224	0.03416714163690909	-0.1173098818415231	-0.01010330065543461	-0.03992834088206831	0.08260053804460205	-28.22689914070098	-53.84734260911997	-29.61465886682199	8.393566515871296	6.248267790179455	-663.4577868113247	30.85488574845213	0.07716802319667439	-0.05231057537512234	0.009151936043378328	-0.06814795168721186	0.01949318622184618	0.01870014956957534	0.1873829151770789	-0.08625168560956546	-0.08625168560931466	-0.03207084480172805	-0.01909484392227608	-0.1044170502674574	-0.02043341789838256	-7.381193370184463e-11	-1.476820692376899e-10	-8.230150076885588e-10	3.544341709379575e-10	1.345297957080256e-10	1.47379062806026e-10	-1.677999645765275e-09
